<?xml version="1.0" encoding="UTF-8"?>
<!DOCTYPE svg PUBLIC "-//W3C//DTD SVG 1.1//EN" "http://www.w3.org/Graphics/SVG/1.1/DTD/svg11.dtd">
<!-- Creator: CorelDRAW 2019 (64-Bit) -->
<svg xmlns="http://www.w3.org/2000/svg" xml:space="preserve" width="223.139mm" height="53.8346mm" version="1.1" style="shape-rendering:geometricPrecision; text-rendering:geometricPrecision; image-rendering:optimizeQuality; fill-rule:evenodd; clip-rule:evenodd"
viewBox="0 0 22325.21 5386.19"
 xmlns:xlink="http://www.w3.org/1999/xlink"
 xmlns:xodm="http://www.corel.com/coreldraw/odm/2003">
 <defs>
  <style type="text/css">
   <![CDATA[
    .fil0 {fill:#3C3B3B;fill-rule:nonzero}
    .fil1 {fill:#43A454;fill-rule:nonzero}
   ]]>
  </style>
 </defs>
 <g id="Layer_x0020_1">
  <metadata id="CorelCorpID_0Corel-Layer"/>
  <polygon class="fil0" points="10530.77,5386.19 10530.77,0 11016.79,0 11016.79,5386.19 "/>
  <polygon class="fil0" points="11470.52,5386.19 11470.52,4907.51 13892.3,4907.51 13892.3,5386.19 "/>
  <path class="fil0" d="M4304.97 1336.3c-245.41,-411.55 -583.62,-740.87 -1005.11,-978.4 -421.43,-237.54 -888.64,-357.9 -1388.67,-357.9l-971.83 0 0 478.61 964.38 0c415.11,0 800.94,100.23 1146.72,297.89 345.87,198.01 624,469.08 826.7,805.1 202.1,335.3 304.56,710.5 304.56,1115.33 0,399.55 -102.46,772.27 -304.56,1107.58 -202.84,336.37 -480.97,607.09 -826.7,805.1 -345.58,197.65 -728.85,297.89 -1139.2,297.89l-1425.28 -0.7 -0.42 -4906.8 -485.56 0 0 5386.19 1903.73 0c499.89,0 968.3,-120.36 1392.21,-357.86 424.18,-237.65 763.66,-566.96 1009.03,-978.16 245.62,-411.9 370.18,-867.21 370.18,-1353.24 0,-490.96 -124.55,-948.74 -370.18,-1360.64z"/>
  <polygon class="fil0" points="15222.09,5386.19 15222.09,931.8 15708.11,931.8 15708.11,5386.19 "/>
  <polygon class="fil0" points="13461.9,478.61 13461.9,0 17468.31,0 17468.31,478.61 "/>
  <polygon class="fil0" points="21792.24,5386.19 19632.81,653.32 17502.79,5386.19 16969.93,5386.19 19412.6,0 19859.41,0 22325.21,5386.19 "/>
  <polygon class="fil1" points="8906.08,2872.71 8906.08,2386.69 6662.19,2386.69 6662.19,2872.71 "/>
  <polygon class="fil1" points="6183.69,4907.51 6183.69,478.61 9241.7,478.61 9241.7,0 5705.22,0 5705.22,5386.19 9338.66,5386.19 9338.66,4907.51 "/>
 </g>
</svg>
